<mxfile host="app.diagrams.net" modified="2023-09-25T08:46:42.400Z" agent="Mozilla/5.0 (Windows NT 10.0; Win64; x64) AppleWebKit/537.36 (KHTML, like Gecko) Chrome/116.0.0.0 Safari/537.36" etag="qjk4LXTr1Ng2KDWfDmfL" version="21.8.1" type="device">
  <diagram name="Page-1" id="gEnCYNqXEZ-B9lpTmPMm">
    <mxGraphModel dx="880" dy="478" grid="1" gridSize="10" guides="1" tooltips="1" connect="1" arrows="1" fold="1" page="1" pageScale="1" pageWidth="850" pageHeight="1100" math="0" shadow="0">
      <root>
        <mxCell id="0" />
        <mxCell id="1" parent="0" />
        <mxCell id="SkhZSXiNQnpWcmF40kC7-8" value="" style="edgeStyle=orthogonalEdgeStyle;rounded=0;orthogonalLoop=1;jettySize=auto;html=1;" edge="1" parent="1" source="SkhZSXiNQnpWcmF40kC7-2" target="SkhZSXiNQnpWcmF40kC7-4">
          <mxGeometry relative="1" as="geometry" />
        </mxCell>
        <mxCell id="SkhZSXiNQnpWcmF40kC7-2" value="main" style="strokeWidth=2;html=1;shape=mxgraph.flowchart.terminator;whiteSpace=wrap;" vertex="1" parent="1">
          <mxGeometry x="370" y="90" width="100" height="60" as="geometry" />
        </mxCell>
        <mxCell id="SkhZSXiNQnpWcmF40kC7-3" value="KALKULATOR SEDERHANA" style="text;html=1;align=center;verticalAlign=middle;resizable=0;points=[];autosize=1;strokeColor=none;fillColor=none;" vertex="1" parent="1">
          <mxGeometry x="335" y="40" width="180" height="30" as="geometry" />
        </mxCell>
        <mxCell id="SkhZSXiNQnpWcmF40kC7-7" value="" style="edgeStyle=orthogonalEdgeStyle;rounded=0;orthogonalLoop=1;jettySize=auto;html=1;" edge="1" parent="1" source="SkhZSXiNQnpWcmF40kC7-4" target="SkhZSXiNQnpWcmF40kC7-5">
          <mxGeometry relative="1" as="geometry" />
        </mxCell>
        <mxCell id="SkhZSXiNQnpWcmF40kC7-4" value="real a" style="shape=internalStorage;whiteSpace=wrap;html=1;dx=15;dy=15;rounded=1;arcSize=8;strokeWidth=2;" vertex="1" parent="1">
          <mxGeometry x="360" y="180" width="120" height="70" as="geometry" />
        </mxCell>
        <mxCell id="SkhZSXiNQnpWcmF40kC7-12" value="" style="edgeStyle=orthogonalEdgeStyle;rounded=0;orthogonalLoop=1;jettySize=auto;html=1;" edge="1" parent="1" source="SkhZSXiNQnpWcmF40kC7-5" target="SkhZSXiNQnpWcmF40kC7-9">
          <mxGeometry relative="1" as="geometry" />
        </mxCell>
        <mxCell id="SkhZSXiNQnpWcmF40kC7-5" value="real b" style="shape=internalStorage;whiteSpace=wrap;html=1;dx=15;dy=15;rounded=1;arcSize=8;strokeWidth=2;" vertex="1" parent="1">
          <mxGeometry x="360" y="280" width="120" height="70" as="geometry" />
        </mxCell>
        <mxCell id="SkhZSXiNQnpWcmF40kC7-11" value="" style="edgeStyle=orthogonalEdgeStyle;rounded=0;orthogonalLoop=1;jettySize=auto;html=1;" edge="1" parent="1" source="SkhZSXiNQnpWcmF40kC7-9" target="SkhZSXiNQnpWcmF40kC7-10">
          <mxGeometry relative="1" as="geometry" />
        </mxCell>
        <mxCell id="SkhZSXiNQnpWcmF40kC7-9" value="input a" style="shape=parallelogram;html=1;strokeWidth=2;perimeter=parallelogramPerimeter;whiteSpace=wrap;rounded=1;arcSize=12;size=0.23;" vertex="1" parent="1">
          <mxGeometry x="360" y="390" width="120" height="60" as="geometry" />
        </mxCell>
        <mxCell id="SkhZSXiNQnpWcmF40kC7-17" value="" style="edgeStyle=orthogonalEdgeStyle;rounded=0;orthogonalLoop=1;jettySize=auto;html=1;" edge="1" parent="1" source="SkhZSXiNQnpWcmF40kC7-10" target="SkhZSXiNQnpWcmF40kC7-13">
          <mxGeometry relative="1" as="geometry" />
        </mxCell>
        <mxCell id="SkhZSXiNQnpWcmF40kC7-10" value="input b" style="shape=parallelogram;html=1;strokeWidth=2;perimeter=parallelogramPerimeter;whiteSpace=wrap;rounded=1;arcSize=12;size=0.23;" vertex="1" parent="1">
          <mxGeometry x="360" y="490" width="120" height="60" as="geometry" />
        </mxCell>
        <mxCell id="SkhZSXiNQnpWcmF40kC7-18" value="" style="edgeStyle=orthogonalEdgeStyle;rounded=0;orthogonalLoop=1;jettySize=auto;html=1;" edge="1" parent="1" source="SkhZSXiNQnpWcmF40kC7-13" target="SkhZSXiNQnpWcmF40kC7-14">
          <mxGeometry relative="1" as="geometry" />
        </mxCell>
        <mxCell id="SkhZSXiNQnpWcmF40kC7-13" value="penjumlahan" style="shape=internalStorage;whiteSpace=wrap;html=1;dx=15;dy=15;rounded=1;arcSize=8;strokeWidth=2;" vertex="1" parent="1">
          <mxGeometry x="360" y="590" width="120" height="70" as="geometry" />
        </mxCell>
        <mxCell id="SkhZSXiNQnpWcmF40kC7-19" value="" style="edgeStyle=orthogonalEdgeStyle;rounded=0;orthogonalLoop=1;jettySize=auto;html=1;" edge="1" parent="1" source="SkhZSXiNQnpWcmF40kC7-14" target="SkhZSXiNQnpWcmF40kC7-15">
          <mxGeometry relative="1" as="geometry" />
        </mxCell>
        <mxCell id="SkhZSXiNQnpWcmF40kC7-14" value="pengurangan" style="shape=internalStorage;whiteSpace=wrap;html=1;dx=15;dy=15;rounded=1;arcSize=8;strokeWidth=2;" vertex="1" parent="1">
          <mxGeometry x="360" y="700" width="120" height="70" as="geometry" />
        </mxCell>
        <mxCell id="SkhZSXiNQnpWcmF40kC7-20" value="" style="edgeStyle=orthogonalEdgeStyle;rounded=0;orthogonalLoop=1;jettySize=auto;html=1;" edge="1" parent="1" source="SkhZSXiNQnpWcmF40kC7-15" target="SkhZSXiNQnpWcmF40kC7-16">
          <mxGeometry relative="1" as="geometry" />
        </mxCell>
        <mxCell id="SkhZSXiNQnpWcmF40kC7-15" value="perkalian" style="shape=internalStorage;whiteSpace=wrap;html=1;dx=15;dy=15;rounded=1;arcSize=8;strokeWidth=2;" vertex="1" parent="1">
          <mxGeometry x="360" y="810" width="120" height="70" as="geometry" />
        </mxCell>
        <mxCell id="SkhZSXiNQnpWcmF40kC7-25" value="" style="edgeStyle=orthogonalEdgeStyle;rounded=0;orthogonalLoop=1;jettySize=auto;html=1;" edge="1" parent="1" source="SkhZSXiNQnpWcmF40kC7-16" target="SkhZSXiNQnpWcmF40kC7-21">
          <mxGeometry relative="1" as="geometry" />
        </mxCell>
        <mxCell id="SkhZSXiNQnpWcmF40kC7-16" value="pembagian" style="shape=internalStorage;whiteSpace=wrap;html=1;dx=15;dy=15;rounded=1;arcSize=8;strokeWidth=2;" vertex="1" parent="1">
          <mxGeometry x="360" y="920" width="120" height="70" as="geometry" />
        </mxCell>
        <mxCell id="SkhZSXiNQnpWcmF40kC7-26" value="" style="edgeStyle=orthogonalEdgeStyle;rounded=0;orthogonalLoop=1;jettySize=auto;html=1;" edge="1" parent="1" source="SkhZSXiNQnpWcmF40kC7-21" target="SkhZSXiNQnpWcmF40kC7-22">
          <mxGeometry relative="1" as="geometry" />
        </mxCell>
        <mxCell id="SkhZSXiNQnpWcmF40kC7-21" value="a + b" style="rounded=1;whiteSpace=wrap;html=1;absoluteArcSize=1;arcSize=14;strokeWidth=2;" vertex="1" parent="1">
          <mxGeometry x="360" y="1030" width="120" height="100" as="geometry" />
        </mxCell>
        <mxCell id="SkhZSXiNQnpWcmF40kC7-27" value="" style="edgeStyle=orthogonalEdgeStyle;rounded=0;orthogonalLoop=1;jettySize=auto;html=1;" edge="1" parent="1" source="SkhZSXiNQnpWcmF40kC7-22" target="SkhZSXiNQnpWcmF40kC7-23">
          <mxGeometry relative="1" as="geometry" />
        </mxCell>
        <mxCell id="SkhZSXiNQnpWcmF40kC7-22" value="a - b" style="rounded=1;whiteSpace=wrap;html=1;absoluteArcSize=1;arcSize=14;strokeWidth=2;" vertex="1" parent="1">
          <mxGeometry x="360" y="1170" width="120" height="100" as="geometry" />
        </mxCell>
        <mxCell id="SkhZSXiNQnpWcmF40kC7-28" value="" style="edgeStyle=orthogonalEdgeStyle;rounded=0;orthogonalLoop=1;jettySize=auto;html=1;" edge="1" parent="1" source="SkhZSXiNQnpWcmF40kC7-23" target="SkhZSXiNQnpWcmF40kC7-24">
          <mxGeometry relative="1" as="geometry" />
        </mxCell>
        <mxCell id="SkhZSXiNQnpWcmF40kC7-23" value="a * b" style="rounded=1;whiteSpace=wrap;html=1;absoluteArcSize=1;arcSize=14;strokeWidth=2;" vertex="1" parent="1">
          <mxGeometry x="360" y="1310" width="120" height="100" as="geometry" />
        </mxCell>
        <mxCell id="SkhZSXiNQnpWcmF40kC7-36" value="" style="edgeStyle=orthogonalEdgeStyle;rounded=0;orthogonalLoop=1;jettySize=auto;html=1;" edge="1" parent="1" source="SkhZSXiNQnpWcmF40kC7-24" target="SkhZSXiNQnpWcmF40kC7-29">
          <mxGeometry relative="1" as="geometry" />
        </mxCell>
        <mxCell id="SkhZSXiNQnpWcmF40kC7-24" value="a / b" style="rounded=1;whiteSpace=wrap;html=1;absoluteArcSize=1;arcSize=14;strokeWidth=2;" vertex="1" parent="1">
          <mxGeometry x="360" y="1450" width="120" height="100" as="geometry" />
        </mxCell>
        <mxCell id="SkhZSXiNQnpWcmF40kC7-35" value="" style="edgeStyle=orthogonalEdgeStyle;rounded=0;orthogonalLoop=1;jettySize=auto;html=1;" edge="1" parent="1" source="SkhZSXiNQnpWcmF40kC7-29" target="SkhZSXiNQnpWcmF40kC7-30">
          <mxGeometry relative="1" as="geometry" />
        </mxCell>
        <mxCell id="SkhZSXiNQnpWcmF40kC7-29" value="output a + b" style="shape=parallelogram;html=1;strokeWidth=2;perimeter=parallelogramPerimeter;whiteSpace=wrap;rounded=1;arcSize=12;size=0.23;" vertex="1" parent="1">
          <mxGeometry x="360" y="1590" width="120" height="60" as="geometry" />
        </mxCell>
        <mxCell id="SkhZSXiNQnpWcmF40kC7-34" value="" style="edgeStyle=orthogonalEdgeStyle;rounded=0;orthogonalLoop=1;jettySize=auto;html=1;" edge="1" parent="1" source="SkhZSXiNQnpWcmF40kC7-30" target="SkhZSXiNQnpWcmF40kC7-31">
          <mxGeometry relative="1" as="geometry" />
        </mxCell>
        <mxCell id="SkhZSXiNQnpWcmF40kC7-30" value="output a - b" style="shape=parallelogram;html=1;strokeWidth=2;perimeter=parallelogramPerimeter;whiteSpace=wrap;rounded=1;arcSize=12;size=0.23;" vertex="1" parent="1">
          <mxGeometry x="360" y="1690" width="120" height="60" as="geometry" />
        </mxCell>
        <mxCell id="SkhZSXiNQnpWcmF40kC7-33" value="" style="edgeStyle=orthogonalEdgeStyle;rounded=0;orthogonalLoop=1;jettySize=auto;html=1;" edge="1" parent="1" source="SkhZSXiNQnpWcmF40kC7-31" target="SkhZSXiNQnpWcmF40kC7-32">
          <mxGeometry relative="1" as="geometry" />
        </mxCell>
        <mxCell id="SkhZSXiNQnpWcmF40kC7-31" value="output a * b" style="shape=parallelogram;html=1;strokeWidth=2;perimeter=parallelogramPerimeter;whiteSpace=wrap;rounded=1;arcSize=12;size=0.23;" vertex="1" parent="1">
          <mxGeometry x="360" y="1790" width="120" height="60" as="geometry" />
        </mxCell>
        <mxCell id="SkhZSXiNQnpWcmF40kC7-38" value="" style="edgeStyle=orthogonalEdgeStyle;rounded=0;orthogonalLoop=1;jettySize=auto;html=1;" edge="1" parent="1" source="SkhZSXiNQnpWcmF40kC7-32" target="SkhZSXiNQnpWcmF40kC7-37">
          <mxGeometry relative="1" as="geometry" />
        </mxCell>
        <mxCell id="SkhZSXiNQnpWcmF40kC7-32" value="output a / b" style="shape=parallelogram;html=1;strokeWidth=2;perimeter=parallelogramPerimeter;whiteSpace=wrap;rounded=1;arcSize=12;size=0.23;" vertex="1" parent="1">
          <mxGeometry x="360" y="1880" width="120" height="60" as="geometry" />
        </mxCell>
        <mxCell id="SkhZSXiNQnpWcmF40kC7-37" value="end" style="strokeWidth=2;html=1;shape=mxgraph.flowchart.terminator;whiteSpace=wrap;" vertex="1" parent="1">
          <mxGeometry x="370" y="1970" width="100" height="60" as="geometry" />
        </mxCell>
      </root>
    </mxGraphModel>
  </diagram>
</mxfile>
